<svg xmlns="http://www.w3.org/2000/svg">

    <symbol id="game" viewBox="0 0 512.368 512.368">
        <g>
            <g>
                <path d="M447.303,128.681c-0.427-1.259-0.875-3.264-1.408-5.525c-3.52-14.315-6.827-27.84-19.904-32.832l-62.08-23.616
			c-12.032-4.565-25.515-2.923-36.139,4.48l-3.84,3.435c-3.115,3.563-7.339,8.021-10.347,10.88H199.197
			c-2.539-2.667-5.931-6.592-8.768-10.112l-4.437-4.16c-10.624-7.424-24.149-9.131-36.117-4.523L87.73,90.324
			c-13.013,4.949-16.277,18.325-19.755,32.512c-0.533,2.155-0.981,4.117-0.811,4.117c0,0,0.021,0,0.043-0.021
			C46.045,168.66-54.606,379.902,39.623,442.26c13.483,8.917,31.424,7.509,43.691-3.456l73.856-66.219
			c6.507-5.845,14.784-9.067,23.275-9.067h152.853c8.491,0,16.747,3.221,23.275,9.067l73.856,66.219
			c6.955,6.229,15.616,9.408,24.277,9.408c6.955,0,13.888-2.069,19.883-6.293C557.746,383.572,482.823,202.494,447.303,128.681z
			 M341.469,149.502c11.776,0,21.333,9.557,21.333,21.333c0,11.776-9.557,21.333-21.333,21.333s-21.333-9.557-21.333-21.333
			S329.693,149.502,341.469,149.502z M213.469,256.169h-21.333v21.333c0,11.776-9.536,21.333-21.333,21.333
			s-21.333-9.557-21.333-21.333v-21.333h-21.333c-11.797,0-21.333-9.557-21.333-21.333s9.536-21.333,21.333-21.333h21.333V192.17
			c0-11.776,9.536-21.333,21.333-21.333s21.333,9.557,21.333,21.333v21.333h21.333c11.797,0,21.333,9.557,21.333,21.333
			S225.266,256.169,213.469,256.169z M298.802,234.836c-11.776,0-21.333-9.557-21.333-21.333s9.557-21.333,21.333-21.333
			s21.333,9.557,21.333,21.333S310.578,234.836,298.802,234.836z M341.469,277.502c-11.776,0-21.333-9.557-21.333-21.333
			s9.557-21.333,21.333-21.333s21.333,9.557,21.333,21.333S353.245,277.502,341.469,277.502z M384.135,234.836
			c-11.776,0-21.333-9.557-21.333-21.333s9.557-21.333,21.333-21.333s21.333,9.557,21.333,21.333S395.911,234.836,384.135,234.836z" />
            </g>
        </g>
        <g>
        </g>
        <g>
        </g>
        <g>
        </g>
        <g>
        </g>
        <g>
        </g>
        <g>
        </g>
        <g>
        </g>
        <g>
        </g>
        <g>
        </g>
        <g>
        </g>
        <g>
        </g>
        <g>
        </g>
        <g>
        </g>
        <g>
        </g>
        <g>
        </g>
    </symbol>

    <symbol id="browse" height="48" width="48">
        <path d="M14.35 43.95q-1.5 0-2.55-1.05-1.05-1.05-1.05-2.55 0-1.5 1.05-2.55 1.05-1.05 2.55-1.05 1.45 0 2.525 1.05t1.075 2.55q0 1.5-1.05 2.55-1.05 1.05-2.55 1.05Zm20 0q-1.5 0-2.55-1.05-1.05-1.05-1.05-2.55 0-1.5 1.05-2.55 1.05-1.05 2.55-1.05 1.45 0 2.525 1.05t1.075 2.55q0 1.5-1.05 2.55-1.05 1.05-2.55 1.05Zm-22.6-33 5.5 11.4h14.4l6.25-11.4Zm-1.5-3H39.7q1.6 0 2.025.975.425.975-.275 2.175L34.7 23.25q-.5.85-1.4 1.475-.9.625-1.95.625H16.2l-2.8 5.2h24.55v3h-24.1q-2.1 0-3.025-1.4-.925-1.4.025-3.15l3.2-5.9L6.45 7h-3.9V4H8.4Zm7 14.4h14.4Z"/>
    </symbol>

    <symbol id="cart" viewBox="0 0 470 470">
        <path d="M323.85,131.05v-42.2C323.85,39.858,283.992,0,235,0s-88.85,39.858-88.85,88.85v42.2H72V470h326V131.05H323.85z
	 M293.85,131.05h-117.7v-42.2C176.15,56.4,202.55,30,235,30s58.85,26.4,58.85,58.85V131.05z"/>
        <g>
        </g>
        <g>
        </g>
        <g>
        </g>
        <g>
        </g>
        <g>
        </g>
        <g>
        </g>
        <g>
        </g>
        <g>
        </g>
        <g>
        </g>
        <g>
        </g>
        <g>
        </g>
        <g>
        </g>
        <g>
        </g>
        <g>
        </g>
        <g>
        </g>
    </symbol>

    <symbol id="git" viewBox="0 0 48 48">
        <path d="M23.546 10.93 13.067.452a1.55 1.55 0 0 0-2.188 0L8.708 2.627l2.76 2.76a1.838 1.838 0 0 1 2.327 2.341l2.658 2.66a1.838 1.838 0 0 1 1.9 3.039 1.837 1.837 0 0 1-2.6 0 1.846 1.846 0 0 1-.404-1.996L12.86 8.955v6.525c.176.086.342.203.488.348a1.848 1.848 0 0 1 0 2.6 1.844 1.844 0 0 1-2.609 0 1.834 1.834 0 0 1 0-2.598c.182-.18.387-.316.605-.406V8.835a1.834 1.834 0 0 1-.996-2.41L7.636 3.7.45 10.881c-.6.605-.6 1.584 0 2.189l10.48 10.477a1.545 1.545 0 0 0 2.186 0l10.43-10.43a1.544 1.544 0 0 0 0-2.187"/>
    </symbol>

    <symbol id="githublogo">
        <path d="M16 0.396c-8.839 0-16 7.167-16 16 0 7.073 4.584 13.068 10.937 15.183 0.803 0.151 1.093-0.344 1.093-0.772 0-0.38-0.009-1.385-0.015-2.719-4.453 0.964-5.391-2.151-5.391-2.151-0.729-1.844-1.781-2.339-1.781-2.339-1.448-0.989 0.115-0.968 0.115-0.968 1.604 0.109 2.448 1.645 2.448 1.645 1.427 2.448 3.744 1.74 4.661 1.328 0.14-1.031 0.557-1.74 1.011-2.135-3.552-0.401-7.287-1.776-7.287-7.907 0-1.751 0.62-3.177 1.645-4.297-0.177-0.401-0.719-2.031 0.141-4.235 0 0 1.339-0.427 4.4 1.641 1.281-0.355 2.641-0.532 4-0.541 1.36 0.009 2.719 0.187 4 0.541 3.043-2.068 4.381-1.641 4.381-1.641 0.859 2.204 0.317 3.833 0.161 4.235 1.015 1.12 1.635 2.547 1.635 4.297 0 6.145-3.74 7.5-7.296 7.891 0.556 0.479 1.077 1.464 1.077 2.959 0 2.14-0.020 3.864-0.020 4.385 0 0.416 0.28 0.916 1.104 0.755 6.4-2.093 10.979-8.093 10.979-15.156 0-8.833-7.161-16-16-16z"/>
    </symbol>

    <symbol id="githubcat" width="48px" height="48px" viewBox="0 0 48 48">
        <path fill="none" d="M0 0h24v24H0z"/>
        <path fill-rule="nonzero" d="M5.883 18.653c-.3-.2-.558-.455-.86-.816a50.32 50.32 0 0 1-.466-.579c-.463-.575-.755-.84-1.057-.949a1 1 0 0 1 .676-1.883c.752.27 1.261.735 1.947 1.588-.094-.117.34.427.433.539.19.227.33.365.44.438.204.137.587.196 1.15.14.023-.382.094-.753.202-1.095C5.38 15.31 3.7 13.396 3.7 9.64c0-1.24.37-2.356 1.058-3.292-.218-.894-.185-1.975.302-3.192a1 1 0 0 1 .63-.582c.081-.024.127-.035.208-.047.803-.123 1.937.17 3.415 1.096A11.731 11.731 0 0 1 12 3.315c.912 0 1.818.104 2.684.308 1.477-.933 2.613-1.226 3.422-1.096.085.013.157.03.218.05a1 1 0 0 1 .616.58c.487 1.216.52 2.297.302 3.19.691.936 1.058 2.045 1.058 3.293 0 3.757-1.674 5.665-4.642 6.392.125.415.19.879.19 1.38a300.492 300.492 0 0 1-.012 2.716 1 1 0 0 1-.019 1.958c-1.139.228-1.983-.532-1.983-1.525l.002-.446.005-.705c.005-.708.007-1.338.007-1.998 0-.697-.183-1.152-.425-1.36-.661-.57-.326-1.655.54-1.752 2.967-.333 4.337-1.482 4.337-4.66 0-.955-.312-1.744-.913-2.404a1 1 0 0 1-.19-1.045c.166-.414.237-.957.096-1.614l-.01.003c-.491.139-1.11.44-1.858.949a1 1 0 0 1-.833.135A9.626 9.626 0 0 0 12 5.315c-.89 0-1.772.119-2.592.35a1 1 0 0 1-.83-.134c-.752-.507-1.374-.807-1.868-.947-.144.653-.073 1.194.092 1.607a1 1 0 0 1-.189 1.045C6.016 7.89 5.7 8.694 5.7 9.64c0 3.172 1.371 4.328 4.322 4.66.865.097 1.201 1.177.544 1.748-.192.168-.429.732-.429 1.364v3.15c0 .986-.835 1.725-1.96 1.528a1 1 0 0 1-.04-1.962v-.99c-.91.061-1.662-.088-2.254-.485z"/>
    </symbol>


</svg>